<?xml version="1.0" standalone="no"?>
<!DOCTYPE svg PUBLIC "-//W3C//DTD SVG 20010904//EN"
 "http://www.w3.org/TR/2001/REC-SVG-20010904/DTD/svg10.dtd">
<svg version="1.0"
    xmlns="http://www.w3.org/2000/svg" viewBox="0 0 200.000000 200.000000" preserveAspectRatio="xMidYMid meet">

    <g transform="translate(0.000000,200.000000) scale(0.100000,-0.100000)" fill="#000000" stroke="none">
        <path d="M0 1230 l0 -129 25 25 c29 29 55 28 70 -3 l11 -21 21 24 c28 31 60
31 74 0 l11 -23 24 23 c30 31 61 31 76 -1 8 -18 8 -42 0 -94 -19 -111 -13
-134 24 -96 19 19 34 19 34 1 0 -22 19 -30 35 -16 18 15 19 43 3 71 -11 17
-10 22 5 33 17 13 25 76 10 76 -20 -1 -34 -20 -31 -41 2 -18 -2 -24 -17 -24
-16 0 -20 7 -20 34 0 25 7 39 28 55 25 18 42 21 130 21 l102 0 3 -27 3 -28 26
31 c29 34 63 36 77 3 9 -20 9 -20 32 3 27 27 56 30 74 8 13 -15 11 -50 -6
-167 -5 -39 -4 -48 8 -48 8 0 22 8 31 18 15 16 17 47 17 220 l0 202 -440 0
-440 0 0 -130z"/>
        <path d="M1026 1279 c-14 -11 -26 -28 -26 -37 0 -13 4 -12 20 6 44 47 46 33
24 -130 -6 -40 -4 -48 10 -48 11 0 16 9 16 27 0 44 31 141 51 159 35 31 44 6
31 -83 -15 -97 -15 -106 0 -101 7 3 18 35 25 74 12 65 36 113 60 121 17 6 22
-21 11 -70 -5 -25 -8 -63 -6 -84 l3 -38 53 -1 c52 -2 76 11 52 26 -9 6 -11 21
-6 49 4 25 2 41 -4 41 -9 0 -15 -17 -22 -64 -4 -28 -36 -45 -48 -26 -6 8 -8
24 -5 35 3 11 8 50 12 86 5 55 3 67 -11 72 -24 10 -45 -2 -64 -37 l-17 -31 -3
27 c-7 59 -51 59 -82 -1 l-19 -36 -1 36 c0 45 -20 55 -54 28z"/>
        <path d="M1576 1290 c-22 -4 -46 -16 -53 -26 -15 -21 -14 -61 2 -56 6 2 9 11
7 22 -3 18 23 40 49 40 17 0 4 -69 -17 -85 -16 -11 -16 -13 1 -22 14 -8 16
-15 8 -39 -11 -32 -44 -44 -69 -24 -17 15 -19 -1 -2 -18 17 -17 63 -15 77 2 7
8 16 27 20 43 5 20 15 29 36 33 41 7 45 30 5 30 -30 0 -31 1 -28 38 3 37 3 37
51 40 56 4 62 17 10 26 -43 7 -43 7 -97 -4z"/>
        <path d="M1384 1173 c-3 -10 -9 -28 -14 -39 -5 -12 -6 -32 -3 -44 4 -15 -3
-31 -24 -53 -34 -36 -45 -60 -37 -82 15 -38 56 -3 74 64 6 25 23 53 36 63 32
26 31 43 -1 22 l-25 -16 6 33 c3 19 7 42 9 52 2 9 -1 17 -6 17 -5 0 -12 -8
-15 -17z m-33 -186 c-11 -28 -31 -37 -31 -14 0 18 33 63 37 50 2 -5 -1 -22 -6
-36z"/>
        <path d="M1686 1174 c-9 -24 -7 -104 2 -104 5 0 16 18 25 40 16 42 37 53 37
20 0 -12 7 -20 18 -20 9 0 23 -9 30 -20 13 -22 61 -27 79 -9 8 8 13 8 17 0 11
-18 71 -13 89 7 24 26 21 36 -5 18 -24 -17 -68 -22 -68 -8 0 5 12 14 26 20 20
10 25 18 22 39 -6 53 -52 38 -73 -23 -10 -30 -19 -40 -39 -42 -31 -4 -34 8 -6
26 24 15 27 60 5 69 -18 6 -55 -23 -55 -44 0 -7 -4 -13 -10 -13 -5 0 -10 14
-10 30 0 42 -19 39 -54 -10 l-18 -25 7 33 c7 33 -8 46 -19 16z m161 -21 c3 -7
-5 -17 -16 -23 -18 -9 -21 -8 -21 8 0 32 28 43 37 15z m93 -2 c0 -10 -7 -21
-15 -25 -15 -5 -22 24 -8 37 12 13 23 7 23 -12z"/>
        <path d="M22 1075 c-21 -24 -22 -34 -22 -230 l0 -205 440 0 440 0 0 129 0 130
-26 -13 c-64 -34 -90 13 -70 124 7 41 12 78 9 83 -18 31 -51 -32 -68 -131 -14
-80 -23 -96 -44 -83 -11 7 -11 25 -1 110 7 56 10 104 7 108 -12 11 -44 -26
-55 -65 -6 -20 -14 -61 -18 -89 -7 -58 -24 -82 -43 -59 -8 10 -8 37 1 109 12
100 6 128 -19 90 -19 -28 -33 -29 -33 -3 0 13 -7 20 -19 20 -14 0 -20 -9 -23
-35 -4 -32 -2 -35 23 -35 15 0 31 -5 34 -10 10 -16 -14 -40 -40 -40 -17 0 -25
-9 -34 -40 -15 -51 -50 -76 -88 -62 -16 5 -37 6 -48 2 -28 -10 -54 -1 -66 22
-8 14 -7 44 2 104 7 46 9 87 6 90 -20 21 -54 -63 -72 -178 -6 -39 -32 -58 -42
-31 -4 9 -1 53 5 98 15 104 15 115 -3 115 -21 0 -41 -45 -55 -120 -17 -91 -26
-111 -46 -103 -14 5 -15 15 -10 57 22 180 21 190 -22 141z"/>
        <path d="M1587 922 c-10 -11 -22 -46 -29 -78 -15 -82 -16 -86 -28 -79 -6 4 -8
15 -5 25 9 29 -16 36 -37 10 -10 -12 -18 -27 -17 -34 0 -7 2 -7 6 2 7 18 20
15 26 -8 3 -11 14 -20 25 -20 12 0 22 -9 27 -22 6 -21 9 -18 27 25 11 26 27
47 34 47 18 0 18 -14 -1 -30 -34 -28 -1 -66 43 -49 15 6 31 5 43 -2 15 -7 28
-6 50 5 28 14 33 14 55 0 22 -15 26 -15 49 0 14 9 25 22 25 28 0 9 -3 9 -12 0
-7 -7 -22 -12 -35 -12 -20 0 -23 5 -23 35 0 31 3 35 25 35 14 0 25 5 25 10 0
6 -7 10 -16 10 -14 0 -14 2 0 22 23 32 21 78 -3 78 -19 0 -51 -53 -51 -84 0
-9 -7 -16 -15 -16 -8 0 -15 -4 -15 -10 0 -5 5 -10 10 -10 6 0 10 -11 10 -25 0
-29 -41 -60 -67 -50 -16 6 -15 9 10 27 29 21 36 55 13 64 -24 9 -56 -15 -63
-47 -6 -32 -24 -46 -43 -34 -7 4 -5 11 5 21 17 17 20 50 6 58 -15 10 -36 -3
-54 -32 -9 -15 -17 -21 -17 -12 0 8 14 35 31 60 43 64 31 142 -14 92z m20 -54
c-22 -53 -37 -56 -26 -6 12 52 19 62 31 50 6 -6 4 -22 -5 -44z m233 8 c0 -13
-7 -29 -15 -36 -17 -14 -20 -3 -9 38 8 29 24 28 24 -2z m-112 -93 c-2 -10 -11
-19 -21 -21 -16 -3 -17 -1 -7 17 13 25 33 28 28 4z"/>
        <path d="M1027 900 c-15 -12 -27 -26 -27 -32 0 -6 8 -4 18 5 36 33 45 22 36
-45 -11 -86 -11 -112 1 -118 5 -3 13 15 17 40 12 71 37 128 59 135 11 4 23 4
26 1 4 -3 1 -42 -6 -86 -12 -77 -9 -106 8 -95 5 2 11 28 15 56 9 68 41 131 64
127 10 -2 16 -12 15 -23 -16 -133 -16 -138 1 -151 12 -8 26 -10 40 -4 13 4 29
4 36 0 8 -5 18 -6 23 -3 16 10 82 9 89 -1 13 -19 26 38 18 79 -7 40 -9 38 -26
-19 -14 -46 -34 -45 -34 2 0 66 -48 67 -79 1 -11 -22 -23 -34 -36 -34 -22 0
-22 2 -9 108 5 46 4 61 -7 68 -22 14 -29 11 -60 -22 -25 -27 -29 -28 -29 -11
0 11 -7 25 -15 32 -19 16 -60 -8 -71 -42 -7 -21 -9 -20 -14 11 -6 43 -19 47
-53 21z m353 -114 c0 -24 -19 -66 -30 -66 -14 0 -13 53 2 68 16 16 28 15 28
-2z"/>
    </g>
</svg>
